<?xml version="1.0" standalone="no"?>
<!DOCTYPE svg PUBLIC "-//W3C//DTD SVG 20010904//EN"
 "http://www.w3.org/TR/2001/REC-SVG-20010904/DTD/svg10.dtd">
<svg version="1.0" xmlns="http://www.w3.org/2000/svg"
 width="512.000000pt" height="512.000000pt" viewBox="0 0 512.000000 512.000000"
 preserveAspectRatio="xMidYMid meet">

<g transform="translate(0.000000,512.000000) scale(0.100000,-0.100000)"
fill="#000000" stroke="none">
<path d="M1325 4397 c-666 -222 -1224 -411 -1242 -420 -92 -48 -110 -176 -33
-240 21 -18 375 -140 1262 -436 678 -226 1242 -411 1253 -411 34 0 2452 810
2487 833 38 26 68 79 68 122 0 43 -30 96 -68 122 -38 25 -2455 833 -2492 833
-14 0 -569 -182 -1235 -403z"/>
<path d="M4638 3262 l-138 -46 0 -747 0 -746 -42 -19 c-121 -54 -219 -165
-258 -291 -19 -61 -20 -93 -20 -522 0 -520 -2 -506 80 -548 43 -23 51 -23 389
-23 328 0 347 1 387 21 31 15 48 32 63 63 20 41 21 59 21 479 0 285 -4 454
-11 489 -27 128 -128 260 -245 320 l-64 33 0 793 c0 627 -3 792 -12 791 -7 0
-75 -22 -150 -47z"/>
<path d="M960 2593 c0 -280 5 -526 10 -547 21 -94 326 -340 585 -473 530 -272
1137 -317 1715 -126 133 44 357 153 480 233 208 137 385 298 400 366 8 33 15
1054 7 1054 -1 0 -340 -113 -752 -251 l-750 -252 -95 0 -95 0 -750 252 c-412
138 -751 251 -752 251 -2 0 -3 -228 -3 -507z"/>
</g>
</svg>
